<svg xmlns="http://www.w3.org/2000/svg" width="24" height="24" viewBox="0 0 24 24"><path d="M24 4.557a9.93 9.93 0 0 1-2.828.775 4.932 4.932 0 0 0 2.165-2.724c-.951.564-2.005.974-3.127 1.195a4.916 4.916 0 0 0-8.38 4.482c-4.083-.205-7.697-2.162-10.125-5.138a4.822 4.822 0 0 0-.664 2.475c0 1.708.87 3.216 2.188 4.099a4.904 4.904 0 0 1-2.229-.616c-.054 2.281 1.581 4.415 3.949 4.89a4.936 4.936 0 0 1-2.224.084c.627 1.956 2.444 3.377 4.6 3.417a9.867 9.867 0 0 1-6.102 2.104c-.396 0-.787-.023-1.175-.069a13.945 13.945 0 0 0 7.548 2.212c9.057 0 14.009-7.496 14.009-13.986 0-.213-.005-.425-.014-.636a9.936 9.936 0 0 0 2.457-2.548z"/></svg>
